<svg width="512" height="512" viewBox="0 0 512 512" xmlns="http://www.w3.org/2000/svg">
  <defs>
    <linearGradient id="greenGradient" x1="0%" y1="0%" x2="100%" y2="100%">
      <stop offset="0%" stop-color="#004B50" />
      <stop offset="50%" stop-color="#007867" />
      <stop offset="100%" stop-color="#5BE49B" />
    </linearGradient>
  </defs>
  <circle cx="256" cy="256" r="240" fill="url(#greenGradient)" />
  <g transform="translate(128, 128) scale(5)">
    <path
      fill="#ffffff"
      d="M20 2C16.5 2 13.5 3.5 12 6C10.5 3.5 7.5 2 4 2C4 2 2 2 2 4V26C2 28 4 28 4 28C7.5 28 10.5 29.5 12 32C13.5 29.5 16.5 28 20 28C20 28 22 28 22 26V4C22 2 20 2 20 2M12 26C10.5 24.5 8 23 5 22.5V5C7.5 5.5 10 6.5 12 8.5V26M19 22.5C16 23 13.5 24.5 12 26V8.5C14 6.5 16.5 5.5 19 5V22.5Z"
      transform="translate(3, 2)"
    />
  </g>
</svg>
